#!OML:ASF F:\VICON\USERDATA\INSTALL\rory3\rory3.ASF
:FULLY-SPECIFIED
:DEGREES
566
root 15.7986 17.6481 11.1861 -2.77409 0.955545 2.80382
lowerback 12.3597 3.56069 3.37771
upperback 1.57079 5.23368 1.08006
thorax -5.05909 2.52023 -1.61675
lowerneck -19.4829 5.01868 -7.14743
upperneck 38.7055 9.53131 3.29739
head 16.7594 3.4131 4.58013
rclavicle -3.75703e-014 -2.38542e-015
rhumerus -34.6737 -17.3714 -69.661
rradius 32.9774
rwrist 4.4023
rhand -17.9073 8.45222
rfingers 7.12502
rthumb 8.3598 -21.3624
lclavicle -3.75703e-014 -2.38542e-015
lhumerus -40.6307 24.2266 70.9048
lradius 26.913
lwrist -12.0964
lhand -20.1421 24.5048
lfingers 7.12502
lthumb 6.2026 54.394
rfemur -0.456525 5.54146 5.95676
rtibia 25.4094
rfoot -16.2905 -4.06186
rtoes -12.9435
lfemur -4.01683 -14.9854 -3.63986
ltibia 22.0901
lfoot -1.7069 -7.61799
ltoes -17.0098
567
root 15.9534 17.6251 11.1939 -2.75252 0.720463 2.95805
lowerback 12.4399 3.61671 3.29196
upperback 1.50535 5.29952 1.0384
thorax -5.1731 2.55029 -1.63182
lowerneck -19.567 5.03028 -7.06642
upperneck 38.7695 9.55867 3.2325
head 16.8236 3.41968 4.55313
rclavicle 3.6477e-014 -1.43125e-014
rhumerus -34.8379 -17.4489 -69.339
rradius 33.1646
rwrist 4.50421
rhand -17.9222 8.01912
rfingers 7.12502
rthumb 8.34541 -21.796
lclavicle 3.6477e-014 -1.43125e-014
lhumerus -40.7462 24.5416 70.744
lradius 26.6726
lwrist -12.327
lhand -20.1555 23.7772
lfingers 7.12502
lthumb 6.18974 53.6667
rfemur -0.673514 5.92626 5.24296
rtibia 25.6331
rfoot -16.2564 -4.08218
rtoes -13.1391
lfemur -3.74197 -14.8341 -4.19211
ltibia 21.8935
lfoot -2.68321 -7.55645
ltoes -20.6128
568
root 16.1111 17.5993 11.2029 -2.73678 0.494265 2.93561
lowerback 12.4674 3.64855 3.3563
upperback 1.46286 5.35563 1.08685
thorax -5.22949 2.57499 -1.62976
lowerneck -19.6389 5.02313 -6.98602
upperneck 38.7982 9.58712 3.08438
head 16.8745 3.41593 4.48688
rclavicle -1.72943e-014 1.11319e-014
rhumerus -34.9994 -17.3845 -69.063
rradius 33.3577
rwrist 4.50707
rhand -17.6303 8.27882
rfingers 7.12502
rthumb 8.62709 -21.5249
lclavicle -1.72943e-014 1.11319e-014
lhumerus -40.8282 24.7263 70.7773
lradius 26.5607
lwrist -12.3226
lhand -20.9901 24.0765
lfingers 7.12502
lthumb 5.38388 53.9881
rfemur -0.900015 6.27653 4.71117
rtibia 25.8538
rfoot -16.0154 -4.07848
rtoes -14.4572
lfemur -3.42966 -14.6836 -4.57432
ltibia 21.6509
lfoot -3.74685 -7.44106
ltoes -23.3661
569
root 16.2677 17.5714 11.214 -2.74723 0.18353 2.95181
lowerback 12.4467 3.72175 3.34138
upperback 1.4648 5.45198 1.13105
thorax -5.21728 2.62332 -1.58904
lowerneck -19.7051 4.97164 -7.05067
upperneck 38.7816 9.5436 3.06862
head 16.8836 3.38497 4.48571
rclavicle 6.43068e-014 -7.95139e-016
rhumerus -35.1196 -17.2934 -68.7949
rradius 33.5065
rwrist 4.41827
rhand -16.9304 8.71481
rfingers 7.12502
rthumb 9.30252 -21.0599
lclavicle 6.43068e-014 -7.95139e-016
lhumerus -40.9302 24.4889 71.0644
lradius 26.7891
lwrist -11.9515
lhand -21.0947 24.5661
lfingers 7.12502
lthumb 5.28295 54.4803
rfemur -1.06934 6.72783 4.15971
rtibia 25.9643
rfoot -15.742 -4.1376
rtoes -15.4259
lfemur -3.10496 -14.4295 -5.03516
ltibia 21.5742
lfoot -5.10072 -7.11211
ltoes -27.2846
570
root 16.4251 17.546 11.2269 -2.82129 -0.173732 3.01552
lowerback 12.4706 3.82918 3.26503
upperback 1.47492 5.58639 1.16477
thorax -5.22446 2.69106 -1.53436
lowerneck -19.7001 4.95869 -7.04532
upperneck 38.7645 9.51412 3.07781
head 16.8749 3.37618 4.48216
rclavicle 3.68746e-014 -3.10104e-014
rhumerus -35.334 -17.0925 -68.5165
rradius 33.701
rwrist 4.40789
rhand -16.6301 8.78343
rfingers 7.12502
rthumb 9.59228 -20.9782
lclavicle 3.68746e-014 -3.10104e-014
lhumerus -41.0678 24.4292 71.2411
lradius 26.9834
lwrist -11.8221
lhand -20.3699 24.5688
lfingers 7.12502
lthumb 5.98267 54.4643
rfemur -1.05734 7.16774 3.5644
rtibia 25.9333
rfoot -15.5294 -4.31313
rtoes -16.9454
lfemur -2.79788 -14.1223 -5.59858
ltibia 21.6617
lfoot -6.25843 -6.56479
ltoes -30.013
571
root 16.5851 17.52 11.2346 -2.86927 -0.436281 3.1469
lowerback 12.5369 3.91304 3.2041
upperback 1.4646 5.69068 1.13921
thorax -5.27069 2.74194 -1.54954
lowerneck -19.7077 4.98044 -6.91469
upperneck 38.7696 9.51181 3.0403
head 16.8908 3.38789 4.44483
rclavicle -5.76476e-014 -4.77083e-015
rhumerus -35.45 -17.0279 -68.2851
rradius 33.7759
rwrist 4.32958
rhand -16.7196 8.93249
rfingers 7.12502
rthumb 9.50587 -20.8331
lclavicle -5.76476e-014 -4.77083e-015
lhumerus -41.1442 24.2925 71.4041
lradius 27.1652
lwrist -11.573
lhand -20.3214 24.5039
lfingers 7.12502
lthumb 6.02954 54.3981
rfemur -0.993094 7.57828 2.86614
rtibia 25.8492
rfoot -15.2755 -4.48564
rtoes -18.0632
lfemur -2.65495 -13.7398 -6.21573
ltibia 21.8221
lfoot -7.01983 -6.40798
ltoes -29.9337
572
root 16.7459 17.4961 11.2408 -2.91226 -0.597773 3.23078
lowerback 12.6044 3.90478 3.19399
upperback 1.45401 5.68274 1.16322
thorax -5.32308 2.73685 -1.52363
lowerneck -19.6237 5.00244 -7.02327
upperneck 38.6867 9.56419 3.05409
head 16.8135 3.4031 4.46665
rclavicle -1.43125e-014 -3.97569e-015
rhumerus -35.4833 -16.9209 -68.0383
rradius 33.7299
rwrist 4.23542
rhand -16.7328 8.81537
rfingers 7.12502
rthumb 9.49318 -20.9508
lclavicle -1.43125e-014 -3.97569e-015
lhumerus -41.2386 24.2944 71.5364
lradius 27.2657
lwrist -11.2775
lhand -19.8288 25.098
lfingers 7.12502
lthumb 6.50506 54.9781
rfemur -0.885654 8.0002 2.24816
rtibia 25.7263
rfoot -14.9749 -4.68646
rtoes -18.2119
lfemur -2.61313 -13.3917 -6.79576
ltibia 22.0827
lfoot -7.93705 -6.38793
ltoes -30.3065
573
root 16.9019 17.477 11.2454 -2.93935 -0.671876 3.51131
lowerback 12.6206 3.88579 2.91308
upperback 1.49142 5.61793 1.15411
thorax -5.32139 2.71121 -1.36738
lowerneck -19.6374 4.98667 -7.28042
upperneck 38.6007 9.57855 3.1803
head 16.7423 3.39616 4.56021
rclavicle 9.24349e-014 3.18055e-015
rhumerus -35.5387 -16.9769 -67.7935
rradius 33.8105
rwrist 4.09298
rhand -17.1251 9.21418
rfingers 7.12502
rthumb 9.11465 -20.5689
lclavicle 9.24349e-014 3.18055e-015
lhumerus -41.1785 24.4482 71.6629
lradius 27.2516
lwrist -11.1462
lhand -19.3709 25.3418
lfingers 7.12502
lthumb 6.94711 55.2078
rfemur -0.795975 8.27696 1.43968
rtibia 25.5754
rfoot -14.6185 -4.90586
rtoes -17.876
lfemur -2.63487 -13.0128 -7.59099
ltibia 22.3964
lfoot -8.90906 -6.37019
ltoes -31.0878
574
root 17.0569 17.4577 11.2486 -3.01731 -0.770428 3.72813
lowerback 12.7106 3.92293 2.70425
upperback 1.52413 5.63925 1.13168
thorax -5.35361 2.72523 -1.2845
lowerneck -19.7749 4.95255 -7.35378
upperneck 38.6248 9.54054 3.25248
head 16.781 3.37587 4.60681
rclavicle -9.54166e-015 4.77083e-015
rhumerus -35.5376 -17.2108 -67.522
rradius 33.7501
rwrist 3.97772
rhand -17.5965 9.84424
rfingers 7.12502
rthumb 8.65977 -19.9581
lclavicle -9.54166e-015 4.77083e-015
lhumerus -40.9817 24.1532 72.0412
lradius 27.3759
lwrist -10.8178
lhand -19.1485 25.5938
lfingers 7.12502
lthumb 7.1618 55.4527
rfemur -0.694003 8.52273 0.730343
rtibia 25.4711
rfoot -14.1534 -5.1883
rtoes -17.8936
lfemur -2.57679 -12.5949 -8.30315
ltibia 22.6373
lfoot -9.87619 -6.38283
ltoes -31.2954
575
root 17.2167 17.4415 11.2569 -3.12311 -0.872289 3.93859
lowerback 12.7636 3.93553 2.56508
upperback 1.53685 5.6365 1.10434
thorax -5.38013 2.72599 -1.23928
lowerneck -19.7172 4.98643 -7.26804
upperneck 38.6442 9.59138 3.16243
head 16.7868 3.39546 4.5605
rclavicle -5.96354e-014 1.59028e-014
rhumerus -35.5392 -17.4157 -67.2132
rradius 33.6321
rwrist 4.22632
rhand -17.37 9.62181
rfingers 7.12502
rthumb 8.87832 -20.1714
lclavicle -5.96354e-014 1.59028e-014
lhumerus -40.8801 24.0538 72.2515
lradius 27.4258
lwrist -10.8072
lhand -18.8027 26.2738
lfingers 7.12502
lthumb 7.49562 56.1209
rfemur -0.602733 8.63207 -0.00181566
rtibia 25.4518
rfoot -13.6817 -5.33586
rtoes -16.8487
lfemur -2.44448 -12.1955 -9.06518
ltibia 22.781
lfoot -10.7614 -6.31407
ltoes -31.6726
